<?xml version="1.0" encoding="UTF-8"?>
<svg width="371.17" height="146.72" version="1.1" viewBox="0 0 371.17 146.72" xml:space="preserve" xmlns="http://www.w3.org/2000/svg"><g transform="matrix(1.25 0 0 -1.25 -322.56 713.99)"><g transform="translate(263.44 505.11)"><path d="m0 0h-5.397l1.047 6.203h5.397l1.167 6.778 8.031 2.969-1.706-9.747h9.748l-1.047-6.203h-9.748l-3.706-21.026c-0.322-1.772-0.484-3.142-0.484-4.27 0-2.819 1.21-3.625 4.512-3.625 2.175 0 4.834 0.887 5.8 1.37l-1.208-7.009c-0.967-0.322-3.787-0.967-6.847-0.967-7.009 0-9.909 3.142-9.909 9.104 0 1.45 0.321 3.786 0.725 6.041z" fill="#fff"/></g><g transform="translate(304.85 505.43)"><path d="m0 0c-8.861 0-12.648-9.909-12.648-19.576 0-6.284 2.015-9.99 7.492-9.99 9.023 0 12.648 10.07 12.648 19.576 0 6.284-2.014 9.99-7.492 9.99m10.795-35.205h-6.364c-0.081 0.483-0.161 1.209-0.161 2.014 0 0.806 0.161 2.014 0.322 3.142-2.094-3.545-6.606-6.123-10.715-6.123-9.666 0-14.259 6.284-14.259 15.952 0 14.5 7.01 27.067 20.382 27.067 5.801 0 8.862-3.142 9.99-6.687 0.322 2.578 0.724 3.787 1.691 5.72h6.364z" fill="#fff"/></g><g transform="translate(337.69 527.25)"><path d="m0 0 7.646 0.062-7.781-44.031c-0.242-1.37-0.402-2.498-0.402-3.384 0-2.256 0.885-2.98 3.222-2.98h1.611l-1.128-6.687c-0.806-0.161-2.094-0.322-3.625-0.322-4.914 0-7.734 2.336-7.734 8.378 0 1.773 0.403 4.189 0.806 6.445z" fill="#fff"/></g><g transform="translate(394.58 479.81)"><path d="m0 0c0 2.014 0.242 4.512 0.806 7.492l4.189 24.007h7.492l-3.706-21.348c-0.726-3.947-0.967-5.881-0.967-7.251 0-4.108 1.531-6.445 5.72-6.445 6.444 0 10.875 4.673 12.808 15.629l3.384 19.415h7.492l-7.17-41.085h-6.364c-0.08 0.483-0.161 1.047-0.161 1.852 0 1.451 0.241 3.223 0.484 4.512-2.981-4.512-7.251-7.411-13.212-7.411-6.445 0-10.795 4.027-10.795 10.633" fill="#fff"/></g><g transform="translate(445.41 489.97)"><path d="m0 0c1.048 0.886 2.578 1.611 4.512 2.094l7.089 1.853c5.236 1.369 8.055 3.142 8.055 7.009 0 2.9-2.175 4.753-5.88 4.753-7.089 0-12.004-5.881-13.615-14.823zm4.834-3.867c-2.578-0.645-4.189-1.853-4.189-4.431 0-2.256 1.611-5.801 7.089-5.801 6.445 0 10.795 1.854 15.628 4.432l-1.128-7.09c-4.027-2.255-8.861-3.947-15.306-3.947-9.667 0-14.823 6.767-14.823 16.434 0 13.695 7.654 26.585 22.477 26.585 8.78 0 12.969-5.076 12.969-10.554 0-8.378-5.638-11.601-14.662-13.695z" fill="#fff"/></g><g transform="translate(365.1 476.19)"><path d="m0 0c-5.317 0-7.17 4.753-7.17 9.989 0 9.667 3.948 19.496 12.81 19.496 4.833 0 7.331-2.256 7.331-8.056 0-1.971-0.164-4.027-0.488-6.055-0.149-2.113 3.078-2.447 6.928 0.667 0.201 0.163 0.335 0.41 0.369 0.666 0.334 2.555 0.522 4.941 0.522 7.138 0 8.862-5.318 12.246-13.857 12.246-13.695 0-21.348-12.003-21.348-26.585 0-9.345 4.27-16.434 12.809-16.434 5.961 0 8.378 1.941 11.359 5.325l-3.625-20.776h7.491l6.042 34.874c0.093 0.526 0.167 1.133 0.248 1.656 5e-3 0.031-0.029 0.034-0.036 9e-3 -2.255-5.307-11.154-14.16-19.385-14.16" fill="#fff"/></g><g transform="translate(545 526.03)"><path d="m0 0c0-1.072-0.628-2.062-1.556-2.598l-19.486-11.234c-0.928-0.535-2.085-0.535-3.014 0l-19.45 11.234c-0.929 0.536-1.494 1.526-1.494 2.598v22.467c0 1.072 0.558 2.062 1.487 2.598l19.45 11.234c0.928 0.536 2.068 0.536 2.997 0l19.511-11.234c0.929-0.536 1.555-1.526 1.555-2.598zm8.553 24.694-23.271 19.527c-1.097 0.921-2.602 1.186-3.948 0.696l-28.546-10.39c-1.346-0.49-2.328-1.66-2.577-3.07l-5.275-29.918c-0.248-1.41 0.274-2.846 1.371-3.766l16.752-14.056c0.545-0.458 0.806-1.172 0.685-1.873l-1.494-8.626 39.823 14.722c1.345 0.49 2.327 1.66 2.576 3.07l5.275 29.918c0.249 1.41-0.274 2.846-1.371 3.766" fill="#fff"/></g><g transform="translate(521.98 545.61)"><path d="m0 0c-4.596-0.402-7.995-4.453-7.593-9.049s4.453-7.995 9.049-7.593 7.995 4.453 7.593 9.049-4.453 7.995-9.049 7.593" fill="#fff"/></g></g></svg>
